<svg width="147" height="187" viewBox="0 0 147 187" fill="none" xmlns="http://www.w3.org/2000/svg">
<g clip-path="url(#clip0_110_220)">
<g style="mix-blend-mode:hard-light" opacity="0.2">
<path d="M79.4591 155.657C116.383 155.657 146.315 125.783 146.315 88.9308C146.315 52.0791 116.383 22.2048 79.4591 22.2048C42.5354 22.2048 12.6028 52.0791 12.6028 88.9308C12.6028 125.783 42.5354 155.657 79.4591 155.657Z" fill="url(#paint0_radial_110_220)"/>
</g>
<g style="mix-blend-mode:hard-light" opacity="0.1">
<path d="M133.717 66.726C133.717 103.582 103.784 133.452 66.8609 133.452C29.9375 133.452 0 103.582 0 66.726C0 29.8698 29.9328 0 66.8563 0C103.78 0 133.713 29.8744 133.713 66.726H133.717Z" fill="url(#paint1_radial_110_220)"/>
</g>
<g style="mix-blend-mode:hard-light" opacity="0.2">
<path opacity="0.02" d="M128.128 59.6233C144.886 105.386 165.136 162.257 111.744 181.733C53.839 202.855 27.2781 131.904 15.8117 100.598C4.47574 69.6403 20.4272 35.3733 51.4405 24.0594C82.4584 12.7455 116.792 28.6658 128.128 59.6187V59.6233Z" fill="#7E7E7E"/>
<path opacity="0.05" d="M127.896 59.7071C144.471 104.972 163.883 161.132 111.176 180.362C54.0718 201.191 27.4551 131.681 16.0399 100.514C4.75515 69.6823 20.6414 35.5593 51.5289 24.2919C82.4165 13.0245 116.606 28.8798 127.896 59.7071Z" fill="#7C7C7C"/>
<path opacity="0.07" d="M127.663 59.7907C144.057 104.558 162.625 160.012 110.612 178.991C54.3094 199.527 27.6414 131.462 16.2775 100.426C5.03461 69.7287 20.8556 35.7452 51.6128 24.5242C82.3746 13.3033 116.42 29.0935 127.663 59.7907Z" fill="#797A7A"/>
<path opacity="0.1" d="M127.43 59.8743C143.642 104.144 161.373 158.892 110.044 177.615C54.5423 197.863 27.8231 131.235 16.5057 100.337C5.31407 69.7705 21.0699 35.931 51.6966 24.7566C82.328 13.5821 116.234 29.3072 127.43 59.8743Z" fill="#777878"/>
<path opacity="0.12" d="M127.197 59.9627C143.223 103.731 160.12 157.772 109.476 176.249C54.7751 196.204 28.0047 131.016 16.7385 100.259C5.59347 69.8124 21.2794 36.1171 51.7804 24.9891C82.2814 13.8612 116.047 29.5212 127.197 59.9627Z" fill="#757676"/>
<path opacity="0.15" d="M126.964 60.0463C142.808 103.317 158.862 156.651 108.912 174.877C55.0126 194.539 28.1863 130.798 16.9714 100.175C5.87292 69.8588 21.4937 36.3029 51.8689 25.2215C82.2442 14.14 115.866 29.7349 126.969 60.0463H126.964Z" fill="#737474"/>
<path opacity="0.17" d="M126.736 60.1302C142.399 102.904 157.614 155.531 108.349 173.502C55.2502 192.871 28.3726 130.57 17.2089 100.082C6.15239 69.9008 21.7079 36.4844 51.9528 25.454C82.1976 14.419 115.679 29.9489 126.736 60.1302Z" fill="#707272"/>
<path opacity="0.2" d="M126.503 60.2137C141.984 102.49 156.361 154.411 107.78 172.13C55.4784 191.207 28.5542 130.347 17.4371 99.9983C6.43178 69.9426 21.9221 36.6702 52.0366 25.6864C82.1557 14.6978 115.493 30.158 126.498 60.2184L126.503 60.2137Z" fill="#6E7070"/>
<path opacity="0.22" d="M126.27 60.302C141.569 102.081 155.104 153.291 107.217 170.764C55.7159 189.547 28.7358 130.133 17.6746 99.9192C6.71122 69.989 22.1317 36.8561 52.1204 25.9141C82.1091 14.972 115.307 30.3671 126.265 60.2973L126.27 60.302Z" fill="#6C6E6E"/>
<path opacity="0.24" d="M126.037 60.3856C141.155 101.662 153.851 152.17 106.649 169.392C55.9488 187.888 28.9175 129.91 17.9029 99.8355C6.99069 70.0308 22.346 37.042 52.2089 26.1464C82.0719 15.2555 115.125 30.5809 126.037 60.3856Z" fill="#6A6C6C"/>
<path opacity="0.27" d="M125.804 60.4695C140.736 101.249 152.598 151.05 106.081 168.017C56.1817 186.219 29.0992 129.687 18.1311 99.7474C7.26549 70.0728 22.5556 37.2281 52.2881 26.379C82.0206 15.5346 114.934 30.7949 125.8 60.4695H125.804Z" fill="#676A6B"/>
<path opacity="0.29" d="M125.572 60.5531C140.321 100.835 151.341 149.925 105.517 166.645C56.4191 184.555 29.2808 129.464 18.3686 99.659C7.54956 70.1146 22.7744 37.4093 52.3766 26.6067C81.9787 15.8088 114.752 31.004 125.572 60.5484V60.5531Z" fill="#656869"/>
<path opacity="0.32" d="M125.339 60.6413C139.907 100.426 150.088 148.81 104.949 165.279C56.652 182.895 29.4624 129.245 18.5968 99.5798C7.82436 70.1609 22.984 37.5998 52.4604 26.8437C81.9368 16.0922 114.562 31.2223 125.339 60.6413Z" fill="#636667"/>
<path opacity="0.34" d="M125.106 60.7251C139.492 100.012 148.835 147.69 104.381 163.907C56.8849 181.232 29.644 129.027 18.8297 99.4963C8.10379 70.2076 23.1983 37.7858 52.5442 27.0809C81.8902 16.3759 114.375 31.441 125.106 60.7297V60.7251Z" fill="#616465"/>
<path opacity="0.37" d="M124.873 60.8087C139.078 99.5939 147.578 146.569 103.817 162.531C57.1224 179.567 29.8257 128.799 19.0625 99.4079C8.38324 70.2447 23.4125 37.9671 52.6327 27.3086C81.853 16.6501 114.194 31.6501 124.873 60.8087Z" fill="#5E6263"/>
<path opacity="0.39" d="M124.64 60.8925C138.663 99.1803 146.325 145.445 103.249 161.16C57.3553 177.903 30.0073 128.576 19.2954 99.3244C8.66267 70.2913 23.6267 38.1531 52.7166 27.5411C81.8064 16.9291 114.007 31.864 124.64 60.8971V60.8925Z" fill="#5C6061"/>
<path opacity="0.41" d="M124.407 60.9807C138.244 98.7712 145.072 144.329 102.685 159.794C57.5881 176.244 30.1936 128.362 19.5283 99.2406C8.9421 70.333 23.841 38.339 52.8004 27.7734C81.7645 17.2079 113.821 32.0778 124.407 60.9807Z" fill="#5A5E5F"/>
<path opacity="0.44" d="M124.179 61.0643C137.834 98.3574 143.819 143.209 102.122 158.418C57.8257 174.575 30.3799 128.134 19.7658 99.1523C9.22625 70.3748 24.0599 38.5202 52.8936 28.0011C81.7272 17.4821 113.644 32.2869 124.184 61.0597L124.179 61.0643Z" fill="#585C5D"/>
<path opacity="0.46" d="M123.946 61.1481C137.42 97.9439 142.566 142.084 101.554 157.047C58.0586 172.911 30.5569 127.911 19.994 99.0687C9.50101 70.4168 24.2648 38.7063 52.9727 28.2337C81.676 17.7612 113.453 32.4962 123.946 61.1481Z" fill="#555A5B"/>
<path opacity="0.49" d="M123.713 61.2317C137.005 97.5254 141.313 140.964 100.99 155.675C58.2961 171.252 30.7432 127.693 20.2315 98.985C9.78508 70.4632 24.4837 38.8921 53.0612 28.4661C81.6387 18.04 113.271 32.7099 123.718 61.2317H123.713Z" fill="#535859"/>
<path opacity="0.51" d="M123.48 61.3199C136.591 97.1163 140.056 139.848 100.422 154.309C58.5289 169.592 30.9248 127.474 20.4598 98.9059C10.0599 70.5142 24.6933 39.0826 53.145 28.7077C81.5922 18.3281 113.085 32.9329 123.48 61.3246V61.3199Z" fill="#515657"/>
<path opacity="0.54" d="M123.247 61.4038C136.176 96.7027 138.803 138.728 99.8536 152.933C58.7618 167.924 31.1018 127.247 20.6879 98.813C10.3393 70.5469 24.9028 39.2594 53.2242 28.9309C81.5456 18.5978 112.894 33.1376 123.243 61.4038H123.247Z" fill="#4F5455"/>
<path opacity="0.56" d="M123.015 61.4874C135.757 96.2891 137.55 137.603 99.2901 151.562C58.9994 166.259 31.2881 127.028 20.9255 98.7294C10.6234 70.5934 25.1218 39.45 53.3127 29.1634C81.5037 18.8814 112.713 33.3514 123.015 61.4874Z" fill="#4C5253"/>
<path opacity="0.59" d="M122.782 61.571C135.343 95.8706 136.293 136.483 98.7219 150.19C59.2322 164.595 31.4697 126.805 21.1537 98.6457C10.8982 70.6352 25.3313 39.6358 53.3965 29.3957C81.4617 19.1602 112.526 33.5652 122.782 61.571Z" fill="#4A5051"/>
<path opacity="0.61" d="M122.549 61.6592C134.928 95.4614 135.04 135.367 98.1537 148.824C59.4604 162.936 31.6467 126.586 21.3866 98.5665C11.1777 70.6862 25.5456 39.8263 53.4804 29.6326C81.4152 19.4436 112.335 33.7835 122.549 61.6639V61.6592Z" fill="#484E4F"/>
<path opacity="0.63" d="M122.316 61.7431C134.514 95.0479 133.787 134.242 97.5902 147.448C59.698 161.272 31.833 126.363 21.6194 98.4784C11.4571 70.7235 25.7598 40.0077 53.5642 29.8606C81.3733 19.718 112.149 33.9929 122.316 61.7431Z" fill="#464C4D"/>
<path opacity="0.66" d="M122.083 61.8267C134.099 94.6342 132.53 133.122 97.022 146.077C59.9308 159.608 32.0147 126.14 21.8523 98.39C11.7366 70.7653 25.9741 40.189 53.6527 30.0883C81.3314 19.9922 111.967 34.202 122.088 61.822L122.083 61.8267Z" fill="#434A4B"/>
<path opacity="0.68" d="M121.855 61.9102C133.685 94.2204 131.281 132.002 96.4584 144.705C60.1683 157.944 32.1963 125.917 22.0851 98.3062C12.016 70.807 26.1836 40.3748 53.7365 30.3206C81.2847 20.271 111.781 34.4157 121.85 61.9102H121.855Z" fill="#414849"/>
<path opacity="0.71" d="M121.622 61.9941C133.27 93.8022 130.029 130.881 95.8949 143.33C60.4059 156.275 32.3826 125.694 22.3227 98.2181C12.3001 70.849 26.4025 40.5563 53.825 30.5532C81.2475 20.5501 111.6 34.6251 121.622 61.9941Z" fill="#3F4647"/>
<path opacity="0.73" d="M121.389 62.0823C132.856 93.3931 128.771 129.761 95.3267 141.963C60.6387 154.615 32.5642 125.475 22.5509 98.139C12.5748 70.8954 26.6121 40.7467 53.9088 30.7901C81.2009 20.8335 111.413 34.8434 121.389 62.0823Z" fill="#3D4445"/>
<path opacity="0.76" d="M121.156 62.1661C132.441 92.9795 127.518 128.641 94.7585 140.592C60.8716 152.956 32.7412 125.252 22.7838 98.0554C12.8543 70.942 26.8264 40.9328 53.9927 31.0227C81.159 21.1126 111.227 35.0574 121.156 62.1708V62.1661Z" fill="#3A4244"/>
<path opacity="0.78" d="M120.924 62.2497C132.027 92.5658 126.265 127.521 94.195 139.22C61.1091 151.292 32.9275 125.034 23.0167 97.967C13.1338 70.9838 27.0406 41.114 54.0765 31.2504C81.1125 21.3867 111.041 35.2665 120.924 62.2497Z" fill="#384042"/>
<path opacity="0.8" d="M120.691 62.3333C131.612 92.152 125.008 126.396 93.6267 137.845C61.342 149.623 33.1091 124.806 23.2448 97.8787C13.4085 71.0209 27.2501 41.2952 54.1603 31.4781C81.0705 21.6609 110.854 35.4756 120.691 62.3287V62.3333Z" fill="#363E40"/>
<path opacity="0.83" d="M120.458 62.4217C131.193 91.7384 123.755 125.28 93.0586 136.478C61.5702 147.964 33.2908 124.592 23.4777 97.7997C13.688 71.0722 27.4644 41.4859 54.2442 31.7153C81.024 21.9446 110.668 35.6942 120.458 62.4217Z" fill="#343C3E"/>
<path opacity="0.85" d="M120.225 62.5054C130.778 91.3247 122.502 124.16 92.495 135.107C61.8077 146.3 33.4724 124.369 23.7106 97.7161C13.972 71.114 27.6786 41.6719 54.328 31.9477C80.9774 22.2281 110.482 35.908 120.22 62.5054H120.225Z" fill="#313A3C"/>
<path opacity="0.88" d="M119.992 62.589C130.364 90.9109 121.245 123.04 91.9268 133.731C62.0406 144.631 33.654 124.141 23.9434 97.6277C14.2515 71.1558 27.8929 41.8577 54.4165 32.18C80.9401 22.507 110.295 36.1218 119.992 62.589Z" fill="#2F383A"/>
<path opacity="0.9" d="M119.759 62.6726C129.949 90.4971 119.992 121.915 91.3633 132.359C62.2781 142.971 33.8403 123.923 24.1763 97.5393C14.531 71.1929 28.1025 42.0389 54.5004 32.4077C80.8936 22.7811 110.109 36.3308 119.759 62.6726Z" fill="#2D3638"/>
<path opacity="0.93" d="M119.526 62.7611C129.535 90.0882 118.739 120.799 90.7951 130.993C62.511 141.312 34.0173 123.705 24.4092 97.4604C14.8104 71.2441 28.3167 42.2296 54.5842 32.6449C80.8516 23.0648 109.923 36.5494 119.526 62.7611Z" fill="#2B3436"/>
<path opacity="0.95" d="M119.298 62.8447C129.125 89.6699 117.486 119.679 90.2315 129.622C62.7485 139.648 34.2036 123.481 24.6421 97.3767C15.0898 71.2859 28.5309 42.4155 54.6727 32.8773C80.8097 23.3437 109.741 36.7586 119.298 62.8447Z" fill="#283234"/>
<path opacity="0.98" d="M119.065 62.9282C128.706 89.2561 116.234 118.554 89.668 128.246C62.986 137.979 34.3899 123.258 24.8796 97.2883C15.3739 71.3277 28.7498 42.5967 54.7611 33.1049C80.7724 23.6178 109.56 36.9676 119.07 62.9282H119.065Z" fill="#263032"/>
<path d="M118.832 63.0121C128.291 88.8425 114.981 117.434 89.0998 126.875C63.2189 136.315 34.5669 123.035 25.1078 97.2048C15.6487 71.3743 28.9594 42.7828 54.845 33.3375C80.7259 23.8969 109.373 37.1816 118.832 63.0121Z" fill="#242E30"/>
</g>
<path d="M133.568 80.1642C133.568 113.302 106.653 140.164 73.4558 140.164C40.2582 140.164 13.3387 113.302 13.3387 80.1642C13.3387 47.0267 40.2535 20.1689 73.4558 20.1689C106.658 20.1689 133.568 47.0313 133.568 80.1642Z" fill="url(#paint2_linear_110_220)"/>
<path style="mix-blend-mode:overlay" d="M133.568 80.1642C133.568 113.302 106.653 140.164 73.4558 140.164C40.2582 140.164 13.3387 113.302 13.3387 80.1642C13.3387 47.0267 40.2535 20.1689 73.4558 20.1689C106.658 20.1689 133.568 47.0313 133.568 80.1642Z" fill="url(#paint3_radial_110_220)"/>
<path style="mix-blend-mode:overlay" d="M133.568 80.1642C133.568 113.302 106.653 140.164 73.4558 140.164C40.2582 140.164 13.3387 113.302 13.3387 80.1642C13.3387 47.0267 40.2535 20.1689 73.4558 20.1689C106.658 20.1689 133.568 47.0313 133.568 80.1642Z" fill="url(#paint4_radial_110_220)"/>
<path d="M114.208 80.169C114.208 102.629 95.9648 120.841 73.4558 120.841C50.9468 120.841 32.704 102.629 32.704 80.169C32.704 57.7085 50.9468 39.4966 73.4558 39.4966C95.9648 39.4966 114.208 57.7085 114.208 80.169Z" fill="url(#paint5_radial_110_220)"/>
<path d="M73.4558 120.665C51.0819 120.665 32.8809 102.499 32.8809 80.1688C32.8809 57.8385 51.0819 39.6731 73.4558 39.6731C95.8297 39.6731 114.031 57.8385 114.031 80.1688C114.031 102.499 95.8297 120.665 73.4558 120.665Z" stroke="#F2F2F2" stroke-width="0.5" stroke-miterlimit="10"/>
<path d="M70.531 74.9581C70.3307 74.6188 70.3959 74.2841 70.1723 74.0284C69.8556 73.6659 69.4365 73.5357 69.0127 73.4707C67.7272 73.2708 66.4371 73.1313 65.1517 72.9361C64.3739 72.8199 63.5915 72.7176 62.8091 72.7827C61.4631 72.8989 60.1683 72.634 58.8503 72.4434C58.0912 72.3365 57.332 72.2296 56.5403 72.541C55.9674 72.7641 55.3014 72.5549 54.7239 72.3272C54.3513 72.1784 53.9974 72.1738 53.6248 72.1645C53.2894 72.1598 52.9821 72.0762 52.7445 71.8252C52.5163 71.5881 52.5629 71.2906 52.8796 71.2488C54.0998 71.0954 55.2874 70.6677 56.5682 71.0024C57.2296 71.1791 57.9561 71.0257 58.6547 70.928C59.7352 70.7793 60.8064 70.5469 61.9102 70.519C64.0153 70.4632 66.1204 70.3052 68.2302 70.2541C68.7612 70.2401 69.2828 70.0263 69.8324 70.0867C70.0559 70.11 70.2795 70.1053 70.5077 70.1611C71.2063 70.3191 71.7931 69.8682 71.8723 69.1431C71.9235 68.6783 71.8816 68.246 71.3739 68.0368C71.2435 67.981 71.1737 67.8788 71.0898 67.7858C70.9361 67.6138 70.8104 67.5859 70.5822 67.7068C70.1258 67.9485 69.6461 68.0136 69.171 67.6836C68.696 67.3535 68.7146 66.8794 68.7751 66.4146C68.8357 65.9544 68.994 65.5407 69.4225 65.2386C69.7392 65.0155 70.0466 64.9457 70.3773 65.048C70.6008 65.1177 70.6334 65.048 70.6986 64.8713C70.9641 64.1834 71.3739 63.6024 72.1284 63.4211C72.7292 63.277 73.3673 63.2909 73.9448 63.4955C74.4198 63.6628 74.9089 63.6907 75.3839 63.8022C75.6168 63.858 75.7891 63.9185 75.5888 64.1881C75.5376 64.2531 75.4445 64.3321 75.5609 64.3972C75.9754 64.6389 75.7984 64.9597 75.7099 65.285C75.5562 65.8475 75.4212 66.4006 75.8683 66.9305C76.0359 67.1258 76.0825 67.4604 75.8543 67.6975C75.6261 67.9299 75.6028 68.2088 75.5842 68.5016C75.5469 69.0362 75.1184 69.4453 74.5829 69.4917C74.1823 69.5289 74.3453 69.8729 74.4012 69.9612C74.5363 70.1843 74.5363 70.4074 74.5409 70.6445C74.5549 71.1419 74.7552 71.6021 74.8576 72.0808C74.9182 72.3504 74.9182 72.6247 74.8856 72.8943C74.825 73.3452 74.2196 73.5497 73.7632 73.3405C72.7898 72.8943 72.3799 71.9646 71.9654 70.9699C71.8583 70.6817 71.7698 70.4818 71.6301 70.1007C71.3972 70.1936 71.3879 70.2959 71.4764 70.5051C71.7232 71.193 72.0027 71.867 72.4125 72.4666C72.855 73.1127 73.2602 73.4614 73.9541 73.6938C74.322 73.8193 74.7039 73.7728 74.9182 73.5218C75.1976 73.1964 75.3234 72.7455 75.2209 72.2946C75.0672 71.6392 74.8437 71.0024 74.7645 70.2959C76.0546 70.1146 77.3447 70.1193 78.6254 70.4028C78.9701 70.4772 79.324 70.5004 79.678 70.5283C81.187 70.6538 82.7006 70.6584 84.2143 70.7189C85.36 70.7654 86.4777 71.1372 87.6374 71.0582C88.2941 71.0117 88.9508 71.0303 89.6075 70.9931C90.2502 70.9559 90.9255 71.0582 91.5356 71.3371C91.7359 71.4301 91.9594 71.3789 92.169 71.5463C92.4391 71.7601 92.3832 71.8902 92.1783 72.0343C91.7871 72.3179 91.3121 72.4573 90.8184 72.4155C90.5529 72.3923 90.2874 72.4527 90.0359 72.5503C89.6261 72.713 89.2209 72.5224 88.8111 72.4852C88.3453 72.4434 87.8656 72.3086 87.4185 72.369C86.9621 72.4294 86.501 72.4992 86.0446 72.5596C84.8104 72.7269 83.5762 72.8106 82.3373 72.5642C82.016 72.4992 81.7039 72.5131 81.3733 72.5828C80.7771 72.713 80.1717 72.8292 79.5522 72.8524C78.6906 72.8803 77.8337 72.9129 76.9721 72.9454C76.6973 72.9547 76.4272 72.8245 76.1477 72.9454C76.0406 72.9919 75.9381 72.9919 75.9987 73.1639C76.0872 73.4149 76.0685 73.7263 76.2176 73.9262C76.7951 74.7024 76.4085 75.3625 76.1011 76.0923C75.7565 76.9104 75.193 77.6448 75.0346 78.5326C74.825 79.7086 74.9228 79.9829 76.1058 80.3315C77.517 80.7499 78.9515 81.1078 80.2695 81.7632C81.1637 82.2094 82.0486 82.6789 82.9428 83.1251C83.2222 83.2646 83.525 83.3343 83.8091 83.4459C84.2375 83.6132 84.6241 83.8224 84.9455 84.1617C85.4391 84.673 85.9887 85.1006 86.6501 85.4074C87.4884 85.7932 88.2894 86.2441 89.0905 86.7043C90.1431 87.3132 91.3121 87.6061 92.4485 87.9919C93.529 88.3591 94.5629 88.8285 95.6108 89.2748C95.9228 89.4096 96.2489 89.4886 96.5562 89.6234C96.8077 89.7303 96.8543 89.6048 96.8543 89.391C96.8543 88.7309 96.8636 88.0709 96.8496 87.4108C96.845 87.1319 96.9149 87.0715 97.2548 87.0715C97.6833 87.0715 98.0745 87.0715 98.5496 87.0715C98.8942 87.0715 98.9641 87.1226 98.9594 87.3876C98.9501 88.1034 98.9501 88.8239 98.9594 89.5397C98.9594 89.6885 98.9268 89.9116 99.0293 89.9767C99.2109 90.1022 99.4578 90.0464 99.6487 89.9069C100.566 89.2329 101.479 88.5543 102.392 87.871C102.988 87.4248 103.58 86.9739 104.171 86.5184C104.348 86.3836 104.353 86.444 104.553 86.6392C104.776 86.8763 104.874 86.9785 105.023 87.1273C105.419 87.5224 105.401 87.5038 105.042 87.8617C104.506 88.3498 103.943 88.8797 103.384 89.3399C103.132 89.5444 102.89 89.7768 102.569 90.065C103.626 90.065 104.599 90.065 105.573 90.065C106.234 90.065 106.15 89.986 106.15 90.6321C106.15 92.6122 106.146 94.5971 106.16 96.5772C106.16 96.9398 106.067 97.0235 105.596 96.9816C104.79 96.9072 103.975 96.8979 103.17 96.9723C102.625 97.0234 102.462 96.9909 102.471 96.5633C102.49 95.113 102.471 93.6628 102.485 92.2125C102.485 91.9104 102.438 91.7523 102.094 91.7988C101.912 91.822 101.721 91.7849 101.535 91.7849C83.5948 91.7849 65.6594 91.7849 47.7192 91.7849C47.0858 91.7849 47.165 91.7105 47.165 92.324C47.165 93.7464 47.1557 95.1688 47.165 96.5912C47.165 96.9258 47.0719 96.9444 46.5922 96.9444C45.7678 96.9444 44.9528 96.9537 44.0167 96.9537C43.5695 96.9537 43.4904 96.8933 43.4904 96.5679C43.4997 94.6156 43.4904 92.6634 43.4997 90.7064C43.4997 90.4508 43.4438 90.3067 43.1783 90.1301C42.3493 89.5816 42.0093 89.3584 41.0453 88.7449C40.7938 88.5868 40.6214 88.5497 40.817 88.2243C41.1431 87.6944 41.3107 87.4015 41.5343 86.9739C41.6647 86.7275 41.9348 86.8112 42.2143 86.9925C43.5556 87.8431 44.7572 88.5078 46.1125 89.3399C46.9042 89.8279 47.7518 89.972 48.6926 89.9953C49.8337 90.0232 50.7931 89.7721 51.6827 89.0703C51.9947 88.8239 52.1624 88.4567 52.4977 88.2382C52.698 88.1081 52.8796 87.9919 53.1125 88.0197C53.8111 88.1034 54.4072 87.8013 55.0173 87.541C56.2515 87.0157 57.3041 86.2069 58.3427 85.3935C59.2881 84.6498 60.3593 84.3476 61.519 84.4127C62.5995 84.4731 63.5123 84.1524 64.346 83.4923C64.8071 83.1251 65.3194 82.8183 65.7898 82.4604C66.3952 81.9956 67.0985 81.7492 67.8017 81.5029C68.0486 81.4146 68.193 81.2937 68.2954 81.0845C68.6308 80.3966 68.9475 79.704 69.4598 79.123C69.5157 79.0579 69.5669 78.9835 69.6367 78.937C70.6288 78.2816 70.6707 77.338 70.489 76.3014C70.4238 75.9389 70.4751 75.5577 70.4704 75.1812C70.4704 75.0557 70.5449 75.0418 70.6427 74.9906C71.1737 74.7117 71.4065 74.2841 71.509 73.6612C71.6673 72.6804 71.495 72.0948 71.3413 71.0675C71.3413 70.9885 71.2808 70.6585 71.2715 70.5748C71.2622 70.4679 71.2109 70.4214 71.1085 70.4214C70.9827 70.4214 70.9827 70.519 70.992 70.6027C71.0293 70.942 71.0712 71.2767 71.1178 71.616C71.2109 72.3039 71.3926 72.9826 71.1783 73.6845C71.006 74.2888 70.517 74.9535 70.517 74.9535L70.531 74.9581ZM55.3014 89.9348H91.0978C90.66 89.7117 90.2222 89.5258 89.7658 89.4003C88.7459 89.1167 87.67 89.1167 86.6501 88.8611C85.5043 88.5682 84.4611 88.0616 83.6833 87.118C83.3806 86.7554 83.1663 86.2581 82.6354 86.1651C81.8297 86.021 81.024 85.8908 80.2136 85.7886C79.2914 85.6724 78.3693 85.5329 77.4704 85.2912C76.1384 84.9333 74.8902 84.329 73.6141 83.8131C73.3766 83.7154 73.1437 83.6736 72.9109 83.7712C72.6128 83.8967 72.324 84.0501 72.0399 84.2082C70.68 84.9705 69.3433 85.7746 67.839 86.2348C66.7771 86.5602 65.6873 86.7787 64.6208 87.0947C63.829 87.3272 63.0606 87.62 62.2176 87.527C62.1058 87.5131 61.9894 87.5503 61.8776 87.5596C61.1324 87.6339 60.4152 87.8571 59.7026 88.0662C58.9202 88.2894 58.1331 88.5078 57.3786 88.8286C56.666 89.1353 55.9628 89.4654 55.3014 89.9441V89.9348Z" fill="#214A50"/>
</g>
<defs>
<radialGradient id="paint0_radial_110_220" cx="0" cy="0" r="1" gradientUnits="userSpaceOnUse" gradientTransform="translate(79.4591 88.9308) scale(66.8563 66.726)">
<stop offset="0.74" stop-color="#585B5E"/>
<stop offset="0.78" stop-color="#656769"/>
<stop offset="0.83" stop-color="#747576"/>
<stop offset="0.9" stop-color="#7D7D7D"/>
<stop offset="1" stop-color="#808080"/>
</radialGradient>
<radialGradient id="paint1_radial_110_220" cx="0" cy="0" r="1" gradientUnits="userSpaceOnUse" gradientTransform="translate(66.8563 66.726) scale(66.8563 66.726)">
<stop offset="0.74" stop-color="#C2C2C2"/>
<stop offset="0.77" stop-color="#AFAFAF"/>
<stop offset="0.81" stop-color="#9A9A9A"/>
<stop offset="0.86" stop-color="#8B8B8B"/>
<stop offset="0.91" stop-color="#828282"/>
<stop offset="1" stop-color="#808080"/>
</radialGradient>
<linearGradient id="paint2_linear_110_220" x1="73.4558" y1="19.8064" x2="73.4558" y2="141.266" gradientUnits="userSpaceOnUse">
<stop stop-color="#F5FDFF"/>
<stop offset="1" stop-color="#60696B"/>
</linearGradient>
<radialGradient id="paint3_radial_110_220" cx="0" cy="0" r="1" gradientUnits="userSpaceOnUse" gradientTransform="translate(45.5955 43.9495) scale(105.163 104.958)">
<stop stop-color="white"/>
<stop offset="1" stop-color="#545454"/>
</radialGradient>
<radialGradient id="paint4_radial_110_220" cx="0" cy="0" r="1" gradientUnits="userSpaceOnUse" gradientTransform="translate(73.4558 80.1689) scale(60.1124 59.9953)">
<stop stop-color="#808080"/>
<stop offset="0.38" stop-color="#7D7D7D"/>
<stop offset="0.56" stop-color="#767676"/>
<stop offset="0.7" stop-color="#696969"/>
<stop offset="0.81" stop-color="#575757"/>
<stop offset="0.91" stop-color="#3F3F3F"/>
<stop offset="1" stop-color="#242424"/>
</radialGradient>
<radialGradient id="paint5_radial_110_220" cx="0" cy="0" r="1" gradientUnits="userSpaceOnUse" gradientTransform="translate(92.4345 110.513) scale(75.9474 75.7994)">
<stop stop-color="#EBEFF0"/>
<stop offset="0.25" stop-color="#E7EBED"/>
<stop offset="0.49" stop-color="#DBE2E4"/>
<stop offset="0.72" stop-color="#C8D1D5"/>
<stop offset="0.94" stop-color="#AEBBC0"/>
<stop offset="1" stop-color="#A6B4BA"/>
</radialGradient>
<clipPath id="clip0_110_220">
<rect width="147" height="187" fill="white"/>
</clipPath>
</defs>
</svg>
