<svg width="147" height="184" viewBox="0 0 147 184" fill="none" xmlns="http://www.w3.org/2000/svg">
<g style="mix-blend-mode:hard-light" opacity="0.2">
<path d="M79.4591 153.16C116.383 153.16 146.315 123.765 146.315 87.5041C146.315 51.2436 116.383 21.8486 79.4591 21.8486C42.5354 21.8486 12.6028 51.2436 12.6028 87.5041C12.6028 123.765 42.5354 153.16 79.4591 153.16Z" fill="url(#paint0_radial_110_154)"/>
</g>
<g style="mix-blend-mode:hard-light" opacity="0.1">
<path d="M133.717 65.6555C133.717 101.92 103.784 131.311 66.8609 131.311C29.9375 131.311 0 101.92 0 65.6555C0 29.3906 29.9328 0 66.8563 0C103.78 0 133.713 29.3952 133.713 65.6555H133.717Z" fill="url(#paint1_radial_110_154)"/>
</g>
<g style="mix-blend-mode:hard-light" opacity="0.2">
<path opacity="0.02" d="M128.128 58.6669C144.886 103.695 165.136 159.654 111.744 178.818C53.839 199.601 27.2781 129.788 15.8117 98.9841C4.47574 68.5233 20.4272 34.8059 51.4405 23.6735C82.4584 12.5412 116.792 28.2061 128.128 58.6624V58.6669Z" fill="#7E7E7E"/>
<path opacity="0.05" d="M127.896 58.7492C144.471 103.288 163.883 158.547 111.176 177.469C54.0718 197.964 27.4551 129.568 16.0399 98.9017C4.75515 68.5644 20.6414 34.9888 51.5289 23.9022C82.4165 12.8155 116.606 28.4164 127.896 58.7492Z" fill="#7C7C7C"/>
<path opacity="0.07" d="M127.663 58.8315C144.057 102.881 162.625 157.445 110.612 176.12C54.3094 196.326 27.6414 129.353 16.2775 98.8148C5.03461 68.6101 20.8556 35.1718 51.6128 24.1308C82.3746 13.0899 116.42 28.6268 127.663 58.8315Z" fill="#797A7A"/>
<path opacity="0.1" d="M127.43 58.9138C143.642 102.474 161.373 156.343 110.044 174.766C54.5423 194.689 27.8231 129.129 16.5057 98.7279C5.31407 68.6512 21.0699 35.3547 51.6966 24.3595C82.328 13.3643 116.234 28.8372 127.43 58.9138Z" fill="#777878"/>
<path opacity="0.12" d="M127.197 59.0009C143.223 102.067 160.12 155.241 109.476 173.421C54.7751 193.056 28.0047 128.915 16.7385 98.6503C5.59348 68.6926 21.2794 35.5378 51.7804 24.5884C82.2814 13.6389 116.047 29.0477 127.197 59.0009Z" fill="#757676"/>
<path opacity="0.15" d="M126.964 59.0832C142.808 101.66 158.862 154.138 108.912 172.072C55.0126 191.419 28.1863 128.7 16.9714 98.568C5.87292 68.7383 21.4937 35.7208 51.8689 24.8171C82.2442 13.9133 115.866 29.2581 126.969 59.0832H126.964Z" fill="#737474"/>
<path opacity="0.17" d="M126.736 59.1655C142.399 101.253 157.614 153.036 108.349 170.718C55.2502 189.777 28.3726 128.475 17.2089 98.4765C6.15239 68.7795 21.7079 35.8991 51.9528 25.0457C82.1976 14.1878 115.679 29.4685 126.736 59.1655Z" fill="#707272"/>
<path opacity="0.2" d="M126.503 59.2478C141.984 100.846 156.361 151.934 107.78 169.369C55.4784 188.139 28.5542 128.256 17.4371 98.3941C6.43178 68.8206 21.9221 36.082 52.0366 25.2744C82.1557 14.4621 115.493 29.6743 126.498 59.2524L126.503 59.2478Z" fill="#6E7070"/>
<path opacity="0.22" d="M126.27 59.3346C141.569 100.443 155.104 150.832 107.217 168.024C55.7159 186.506 28.7358 128.045 17.6746 98.3163C6.71122 68.8663 22.1317 36.2649 52.1204 25.4984C82.1091 14.7319 115.307 29.88 126.265 59.3301L126.27 59.3346Z" fill="#6C6E6E"/>
<path opacity="0.24" d="M126.037 59.417C141.155 100.032 153.851 149.729 106.649 166.675C55.9488 184.874 28.9175 127.826 17.9029 98.234C6.99069 68.9075 22.346 36.4479 52.2089 25.7272C82.0719 15.011 115.125 30.0905 126.037 59.417Z" fill="#6A6C6C"/>
<path opacity="0.27" d="M125.804 59.4994C140.736 99.6244 152.598 148.627 106.081 165.321C56.1817 183.232 29.0992 127.606 18.1311 98.1471C7.26549 68.9486 22.5556 36.6308 52.2881 25.9558C82.0206 15.2854 114.934 30.3008 125.8 59.4994H125.804Z" fill="#676A6B"/>
<path opacity="0.29" d="M125.572 59.5816C140.321 99.2173 151.341 147.52 105.517 163.972C56.4191 181.594 29.2808 127.387 18.3686 98.0601C7.54956 68.9897 22.7744 36.8091 52.3766 26.1799C81.9787 15.5552 114.752 30.5066 125.572 59.577V59.5816Z" fill="#656869"/>
<path opacity="0.32" d="M125.339 59.6685C139.907 98.8148 150.088 146.422 104.949 162.627C56.652 179.961 29.4624 127.172 18.5968 97.9824C7.82436 69.0354 22.984 36.9967 52.4604 26.4131C81.9368 15.8342 114.562 30.7216 125.339 59.6685Z" fill="#636667"/>
<path opacity="0.34" d="M125.106 59.7509C139.492 98.4078 148.835 145.32 104.381 161.278C56.8849 178.324 29.644 126.957 18.8297 97.9001C8.10379 69.0812 23.1983 37.1797 52.5442 26.6464C81.8902 16.1132 114.375 30.9366 125.106 59.7555V59.7509Z" fill="#616465"/>
<path opacity="0.37" d="M124.873 59.8331C139.078 97.9961 147.578 144.218 103.817 159.924C57.1224 176.687 29.8257 126.733 19.0625 97.8132C8.38324 69.1178 23.4125 37.358 52.6327 26.8705C81.853 16.383 114.194 31.1423 124.873 59.8331Z" fill="#5E6263"/>
<path opacity="0.39" d="M124.64 59.9156C138.663 97.5892 146.325 143.111 103.249 158.575C57.3553 175.049 30.0073 126.513 19.2954 97.731C8.66267 69.1637 23.6267 37.5411 52.7166 27.0993C81.8064 16.6576 114.007 31.3529 124.64 59.9202V59.9156Z" fill="#5C6061"/>
<path opacity="0.41" d="M124.407 60.0025C138.244 97.1867 145.072 142.014 102.685 157.23C57.5881 173.417 30.1936 126.303 19.5283 97.6487C8.9421 69.2048 23.841 37.724 52.8004 27.328C81.7645 16.932 113.821 31.5633 124.407 60.0025Z" fill="#5A5E5F"/>
<path opacity="0.44" d="M124.179 60.0848C137.834 96.7796 143.819 140.911 102.122 155.876C57.8257 171.775 30.3799 126.079 19.7658 97.5617C9.22625 69.2459 24.0599 37.9023 52.8936 27.552C81.7272 17.2018 113.644 31.769 124.184 60.0802L124.179 60.0848Z" fill="#585C5D"/>
<path opacity="0.46" d="M123.946 60.1671C137.42 96.3725 142.566 139.804 101.554 154.527C58.0586 170.137 30.5569 125.859 19.994 97.4793C9.50101 69.287 24.2648 38.0852 52.9727 27.7807C81.676 17.4761 113.453 31.9748 123.946 60.1671Z" fill="#555A5B"/>
<path opacity="0.49" d="M123.713 60.2494C137.005 95.9608 141.313 138.702 100.99 153.178C58.2961 168.504 30.7432 125.644 20.2315 97.397C9.78508 69.3327 24.4837 38.2682 53.0612 28.0094C81.6387 17.7506 113.271 32.1852 123.718 60.2494H123.713Z" fill="#535859"/>
<path opacity="0.51" d="M123.48 60.3364C136.591 95.5585 140.056 137.604 100.422 151.833C58.5289 166.872 30.9248 125.429 20.4598 97.3193C10.0599 69.3832 24.6933 38.4558 53.1451 28.2473C81.5922 18.0342 113.085 32.4048 123.48 60.341V60.3364Z" fill="#515657"/>
<path opacity="0.54" d="M123.247 60.4188C136.176 95.1515 138.803 136.502 99.8536 150.48C58.7618 165.23 31.1018 125.205 20.6879 97.2279C10.3393 69.4153 24.9028 38.6297 53.2242 28.4669C81.5456 18.2996 112.894 32.6061 123.243 60.4188H123.247Z" fill="#4F5455"/>
<path opacity="0.56" d="M123.015 60.501C135.757 94.7443 137.55 135.395 99.2901 149.13C58.9994 163.592 31.2881 124.99 20.9255 97.1455C10.6234 69.4609 25.1218 38.8171 53.3127 28.6955C81.5037 18.5784 112.713 32.8164 123.015 60.501Z" fill="#4C5253"/>
<path opacity="0.59" d="M122.782 60.5833C135.343 94.3326 136.293 134.293 98.7219 147.781C59.2322 161.955 31.4697 124.771 21.1537 97.0631C10.8982 69.502 25.3313 39 53.3965 28.9241C81.4617 18.8528 112.526 33.0267 122.782 60.5833Z" fill="#4A5051"/>
<path opacity="0.61" d="M122.549 60.6702C134.928 93.9301 135.04 133.195 98.1537 146.436C59.4604 160.322 31.6467 124.556 21.3866 96.9854C11.1777 69.5523 25.5456 39.1875 53.4804 29.1574C81.4152 19.1318 112.335 33.2417 122.549 60.6748V60.6702Z" fill="#484E4F"/>
<path opacity="0.63" d="M122.316 60.7524C134.514 93.523 133.787 132.088 97.5902 145.082C59.698 158.685 31.833 124.336 21.6194 96.8984C11.4571 69.5888 25.7598 39.3658 53.5642 29.3814C81.3733 19.4016 112.149 33.4474 122.316 60.7524Z" fill="#464C4D"/>
<path opacity="0.66" d="M122.083 60.8349C134.099 93.1161 132.53 130.986 97.022 143.733C59.9308 157.047 32.0147 124.117 21.8523 96.8117C11.7366 69.6302 25.9741 39.5444 53.6527 29.6057C81.3314 19.6716 111.967 33.6534 122.088 60.8304L122.083 60.8349Z" fill="#434A4B"/>
<path opacity="0.68" d="M121.855 60.9172C133.685 92.709 131.281 129.884 96.4584 142.384C60.1683 155.41 32.1963 123.897 22.0851 96.7293C12.016 69.6713 26.1836 39.7272 53.7365 29.8343C81.2847 19.946 111.781 33.8638 121.85 60.9172H121.855Z" fill="#414849"/>
<path opacity="0.71" d="M121.622 60.9995C133.27 92.2974 130.029 128.782 95.8949 141.03C60.4059 153.768 32.3826 123.678 22.3227 96.6424C12.3001 69.7124 26.4025 39.9056 53.825 30.063C81.2475 20.2204 111.599 34.0696 121.622 60.9995Z" fill="#3F4647"/>
<path opacity="0.73" d="M121.389 61.0865C132.856 91.8949 128.771 127.68 95.3267 139.686C60.6387 152.135 32.5642 123.463 22.5509 96.5647C12.5748 69.7582 26.6121 40.0932 53.9088 30.2963C81.2009 20.4995 111.413 34.2846 121.389 61.0865Z" fill="#3D4445"/>
<path opacity="0.76" d="M121.156 61.1688C132.441 91.4878 127.518 126.577 94.7585 138.336C60.8716 150.502 32.7412 123.243 22.7838 96.4823C12.8543 69.8039 26.8264 40.2761 53.9927 30.525C81.159 20.7738 111.227 34.4949 121.156 61.1733V61.1688Z" fill="#3A4244"/>
<path opacity="0.78" d="M120.924 61.251C132.027 91.0807 126.265 125.475 94.195 136.987C61.1091 148.865 32.9275 123.028 23.0167 96.3953C13.1338 69.845 27.0406 40.4544 54.0765 30.749C81.1125 21.0436 111.041 34.7007 120.924 61.251Z" fill="#384042"/>
<path opacity="0.8" d="M120.691 61.3335C131.612 90.6738 125.008 124.368 93.6267 135.633C61.342 147.223 33.1091 122.804 23.2448 96.3086C13.4085 69.8817 27.2501 40.6329 54.1603 30.9733C81.0705 21.3136 110.854 34.9067 120.691 61.3289V61.3335Z" fill="#363E40"/>
<path opacity="0.83" d="M120.458 61.4204C131.193 90.2667 123.755 123.271 93.0586 134.289C61.5702 145.59 33.2908 122.594 23.4777 96.2308C13.688 69.9321 27.4644 40.8205 54.2442 31.2065C81.024 21.5926 110.668 35.1216 120.458 61.4204Z" fill="#343C3E"/>
<path opacity="0.85" d="M120.225 61.5026C130.778 89.8595 122.502 122.168 92.495 132.939C61.8077 143.953 33.4724 122.374 23.7106 96.1484C13.972 69.9731 27.6786 41.0033 54.328 31.4351C80.9774 21.8715 110.482 35.3319 120.22 61.5026H120.225Z" fill="#313A3C"/>
<path opacity="0.88" d="M119.992 61.5849C130.364 89.4525 121.245 121.066 91.9268 131.585C62.0406 142.311 33.654 122.15 23.9434 96.0615C14.2515 70.0142 27.8929 41.1862 54.4165 31.6638C80.9401 22.1459 110.295 35.5422 119.992 61.5849Z" fill="#2F383A"/>
<path opacity="0.9" d="M119.759 61.6674C129.949 89.0455 119.992 119.959 91.3633 130.236C62.2781 140.678 33.8403 121.935 24.1763 95.9747C14.531 70.0509 28.1025 41.3647 54.5004 31.888C80.8936 22.4158 110.109 35.7482 119.759 61.6674Z" fill="#2D3638"/>
<path opacity="0.93" d="M119.526 61.7543C129.535 88.6431 118.739 118.862 90.7951 128.892C62.511 139.045 34.0173 121.72 24.4092 95.897C14.8104 70.1013 28.3167 41.5523 54.5842 32.1213C80.8516 22.6949 109.923 35.9632 119.526 61.7543Z" fill="#2B3436"/>
<path opacity="0.95" d="M119.298 61.8366C129.125 88.2315 117.486 117.759 90.2316 127.542C62.7485 137.408 34.2036 121.501 24.6421 95.8147C15.0898 70.1425 28.531 41.7352 54.6727 32.35C80.8097 22.9693 109.741 36.169 119.298 61.8366Z" fill="#283234"/>
<path opacity="0.98" d="M119.065 61.9188C128.706 87.8243 116.234 116.652 89.668 126.188C62.986 135.766 34.3899 121.281 24.8796 95.7276C15.3739 70.1835 28.7498 41.9135 54.7611 32.574C80.7724 23.2391 109.56 36.3747 119.07 61.9188H119.065Z" fill="#263032"/>
<path d="M118.832 62.0012C128.291 87.4172 114.981 115.55 89.0998 124.839C63.2189 134.128 34.5669 121.061 25.1078 95.6453C15.6487 70.2292 28.9594 42.0964 54.845 32.8027C80.7259 23.5135 109.373 36.5851 118.832 62.0012Z" fill="#242E30"/>
</g>
<path d="M133.568 78.878C133.568 111.484 106.653 137.915 73.4558 137.915C40.2582 137.915 13.3387 111.484 13.3387 78.878C13.3387 46.2721 40.2535 19.8452 73.4558 19.8452C106.658 19.8452 133.568 46.2766 133.568 78.878Z" fill="url(#paint2_linear_110_154)"/>
<path style="mix-blend-mode:overlay" d="M133.568 78.878C133.568 111.484 106.653 137.915 73.4558 137.915C40.2582 137.915 13.3387 111.484 13.3387 78.878C13.3387 46.2721 40.2535 19.8452 73.4558 19.8452C106.658 19.8452 133.568 46.2766 133.568 78.878Z" fill="url(#paint3_radial_110_154)"/>
<path style="mix-blend-mode:overlay" d="M133.568 78.878C133.568 111.484 106.653 137.915 73.4558 137.915C40.2582 137.915 13.3387 111.484 13.3387 78.878C13.3387 46.2721 40.2535 19.8452 73.4558 19.8452C106.658 19.8452 133.568 46.2766 133.568 78.878Z" fill="url(#paint4_radial_110_154)"/>
<path d="M114.208 78.8824C114.208 100.983 95.9648 118.902 73.4558 118.902C50.9468 118.902 32.704 100.983 32.704 78.8824C32.704 56.7823 50.9468 38.8625 73.4558 38.8625C95.9648 38.8625 114.208 56.7823 114.208 78.8824Z" fill="url(#paint5_radial_110_154)"/>
<path d="M73.4558 118.729C51.0819 118.729 32.8809 100.855 32.8809 78.8825C32.8809 56.9104 51.0819 39.0364 73.4558 39.0364C95.8297 39.0364 114.031 56.9104 114.031 78.8825C114.031 100.855 95.8297 118.729 73.4558 118.729Z" stroke="#F2F2F2" stroke-width="0.5" stroke-miterlimit="10"/>
<path d="M79.473 81.5035C80.8237 81.2245 82.137 81.1742 83.4504 81.2611C84.6986 81.3434 85.9328 81.3068 87.1763 81.2016C87.5256 81.1742 87.8889 81.1879 88.2382 81.2336C89.2302 81.3617 89.9334 82.0295 89.994 83.0128C90.0638 84.083 90.0266 85.1533 90.0359 86.2281C90.0499 87.4584 89.668 88.6202 89.4304 89.8093C89.2348 90.7881 89.0578 91.7669 89.1976 92.7685C89.2441 93.0932 89.3326 93.418 89.4211 93.7381C89.477 93.9302 89.4165 93.9943 89.2209 93.9943C88.8809 93.9897 88.5362 93.9943 88.1776 94.04C88.4338 94.1132 88.6806 94.2046 88.9414 94.2595C89.1976 94.3098 89.3513 94.4196 89.4491 94.6757C89.668 95.2337 90.0406 95.682 90.5668 96.0067C90.7671 96.1302 90.9767 96.272 91.1164 96.4595C91.5076 96.9855 92.0572 97.1318 92.672 97.1776C92.9654 97.1959 93.2541 97.237 93.5429 97.2782C93.636 97.2919 93.7571 97.3102 93.8177 97.3696C94.0319 97.5846 94.2601 97.5069 94.507 97.4566C95.8669 97.1776 97.0638 96.5189 98.2654 95.8786C99.1783 95.3938 100.091 94.9044 101.004 94.415C101.046 94.3922 101.097 94.3739 101.167 94.3967C100.766 94.6712 100.366 94.9547 99.9607 95.22C97.4178 96.8848 94.7212 98.2295 91.7824 99.0939C89.8077 99.6748 87.791 100.018 85.7325 100.141C82.3652 100.343 79.0399 100.004 75.7518 99.2998C72.7571 98.6549 69.7764 97.9642 66.7864 97.301C64.3739 96.7659 61.9427 96.3543 59.479 96.1302C55.0871 95.7323 50.807 96.2217 46.6387 97.6441C46.3872 97.731 46.1357 97.8179 45.8842 97.8956C45.8376 97.9093 45.7771 97.8865 45.7212 97.8773C45.7585 97.8316 45.7817 97.763 45.833 97.7447C47.0439 97.2187 48.2501 96.6973 49.4657 96.1805C49.6334 96.1073 49.6473 96.0021 49.6473 95.8512C49.6613 94.7398 49.9082 93.6878 50.5276 92.7411C50.835 92.27 51.2402 91.9361 51.799 91.7623C52.2182 91.6297 52.6141 91.4238 53.0286 91.2729C53.3453 91.1586 53.6713 91.1677 53.988 91.3141C54.0811 91.3552 54.2069 91.3369 54.314 91.3461C54.4118 91.3781 54.5236 91.4559 54.6074 91.433C54.7891 91.3781 54.9567 91.2821 55.1197 91.1814C55.2082 91.1265 55.2594 91.0259 55.334 90.9527C55.632 90.6463 55.795 90.6646 55.9907 91.0442C56.0931 91.2455 56.2095 91.2866 56.4098 91.1997C56.6567 91.0945 56.8942 91.0579 57.1364 91.2455C57.2155 91.3049 57.3739 91.2821 57.495 91.2638C58.0166 91.186 58.4125 91.4513 58.4032 91.9773C58.3985 92.3889 58.2681 92.7959 58.1843 93.203C58.161 93.3082 58.1144 93.4134 58.0632 93.5689C58.1749 93.5323 58.2308 93.5186 58.2774 93.4912C58.9853 93.0704 59.3626 92.4346 59.5023 91.648C59.5675 91.2683 59.6048 90.8796 59.7305 90.5182C59.8749 90.102 60.0565 89.6858 60.2987 89.3199C60.6806 88.7482 61.2488 88.4372 61.9567 88.4281C62.6693 88.4189 63.2561 88.1536 63.7545 87.646C64.9421 86.4294 66.4185 85.6564 68.0066 85.071C69.4131 84.5496 70.8243 84.051 72.2308 83.5388C72.2728 83.5251 72.3147 83.5159 72.3752 83.4976C72.4544 83.8361 72.5336 84.1745 72.6127 84.5084C72.65 84.5084 72.6873 84.4993 72.7292 84.4947C72.7618 84.1882 72.8084 83.8864 72.8316 83.5799C73.0133 81.3434 73.2601 79.116 73.7026 76.9115C73.8842 76.015 74.1636 75.1323 74.322 74.2359C74.5223 73.0833 74.6294 71.917 74.811 70.7644C74.9368 69.9732 75.1137 69.1865 75.2814 68.4044C75.5702 67.0689 75.6819 65.7105 75.7192 64.3475C75.7658 62.7925 75.7565 61.242 75.5608 59.6961C75.5329 59.4765 75.6121 59.3668 75.8356 59.3393C76.143 59.3073 76.4504 59.2661 76.7578 59.2296C76.7578 59.2067 76.7671 59.1838 76.7671 59.161C76.5761 59.1335 76.3899 59.0878 76.1989 59.0878C75.9986 59.0878 75.9334 59.0329 75.9101 58.8271C75.7006 57.0022 75.7332 55.1864 75.994 53.3706C76.0266 53.1328 76.0126 52.8813 76.0079 52.6388C76.0033 52.3599 75.98 52.0809 75.9707 51.8019C75.966 51.5686 75.9707 51.3216 76.2222 51.2119C76.4783 51.0975 76.6833 51.253 76.8696 51.4039C77.1723 51.6509 77.2468 51.9985 77.298 52.3599C77.3912 53.0413 77.4657 53.7274 77.6054 54.3997C77.7312 54.9897 78.0665 55.4928 78.4857 55.9319C78.5183 55.9639 78.5462 56.0005 78.5788 56.0234C79.2588 56.5448 79.3286 57.2126 78.9141 57.8803C78.4018 58.7127 78.5322 59.568 78.644 60.4416C78.9235 62.6049 79.3286 64.7592 79.3193 66.9454C79.31 68.4547 79.2355 69.964 79.1051 71.4642C78.9328 73.4583 78.9793 75.4342 79.1703 77.4237C79.2867 78.6586 79.3426 79.8935 79.4264 81.1284C79.4358 81.2382 79.4404 81.348 79.4497 81.4898L79.473 81.5035ZM66.316 94.5797C66.4417 94.6117 66.5023 94.6346 66.5675 94.6483C67.4198 94.813 68.2814 94.9593 69.129 95.1468C72.3426 95.8558 75.5469 96.6013 78.7651 97.2919C81.2568 97.827 83.7857 98.1609 86.338 98.2432C86.4125 98.2432 86.487 98.2341 86.5755 98.2295C86.1982 97.6166 86.1377 97.484 86.1982 97.1593C86.2588 96.8437 86.324 96.5235 86.4451 96.2262C86.7105 95.5813 86.7804 94.909 86.799 94.2275C86.799 94.0995 86.799 93.9897 86.6127 93.976C86.5522 93.976 86.473 93.8616 86.4544 93.7884C86.4264 93.6832 86.4544 93.5643 86.4404 93.45C86.1796 91.2455 86.1144 89.0318 86.1563 86.8135C86.1563 86.5894 86.2215 86.4156 86.3892 86.2556C86.6081 86.0406 86.8037 85.7982 87.004 85.5649C86.9294 85.5283 86.8922 85.5283 86.8642 85.5421C86.1796 85.8531 85.4996 86.1778 84.8103 86.4751C83.6227 86.9874 82.4351 87.495 81.2335 87.9707C80.8469 88.1262 80.4231 88.1811 79.9946 88.2909C80.004 87.6597 80.0692 87.0925 79.7292 86.5163C79.6873 86.9691 79.6919 87.3441 79.6174 87.7054C79.2728 89.3428 77.8103 90.5228 76.0499 90.5182C75.3 90.5182 74.5502 90.3673 73.8097 90.253C72.7711 90.0883 71.8676 90.2804 71.0292 90.9619C69.632 92.0962 68.1836 93.1618 66.7538 94.255C66.6234 94.3556 66.4883 94.4471 66.3113 94.5751L66.316 94.5797Z" fill="#214A50"/>
<defs>
<radialGradient id="paint0_radial_110_154" cx="0" cy="0" r="1" gradientUnits="userSpaceOnUse" gradientTransform="translate(79.4591 87.5041) scale(66.8563 65.6555)">
<stop offset="0.74" stop-color="#585B5E"/>
<stop offset="0.78" stop-color="#656769"/>
<stop offset="0.83" stop-color="#747576"/>
<stop offset="0.9" stop-color="#7D7D7D"/>
<stop offset="1" stop-color="#808080"/>
</radialGradient>
<radialGradient id="paint1_radial_110_154" cx="0" cy="0" r="1" gradientUnits="userSpaceOnUse" gradientTransform="translate(66.8563 65.6555) scale(66.8563 65.6555)">
<stop offset="0.74" stop-color="#C2C2C2"/>
<stop offset="0.77" stop-color="#AFAFAF"/>
<stop offset="0.81" stop-color="#9A9A9A"/>
<stop offset="0.86" stop-color="#8B8B8B"/>
<stop offset="0.91" stop-color="#828282"/>
<stop offset="1" stop-color="#808080"/>
</radialGradient>
<linearGradient id="paint2_linear_110_154" x1="73.4558" y1="19.4885" x2="73.4558" y2="138.999" gradientUnits="userSpaceOnUse">
<stop stop-color="#F5FDFF"/>
<stop offset="1" stop-color="#60696B"/>
</linearGradient>
<radialGradient id="paint3_radial_110_154" cx="0" cy="0" r="1" gradientUnits="userSpaceOnUse" gradientTransform="translate(45.5955 43.2443) scale(105.163 103.274)">
<stop stop-color="white"/>
<stop offset="1" stop-color="#545454"/>
</radialGradient>
<radialGradient id="paint4_radial_110_154" cx="0" cy="0" r="1" gradientUnits="userSpaceOnUse" gradientTransform="translate(73.4558 78.8826) scale(60.1124 59.0328)">
<stop stop-color="#808080"/>
<stop offset="0.38" stop-color="#7D7D7D"/>
<stop offset="0.56" stop-color="#767676"/>
<stop offset="0.7" stop-color="#696969"/>
<stop offset="0.81" stop-color="#575757"/>
<stop offset="0.91" stop-color="#3F3F3F"/>
<stop offset="1" stop-color="#242424"/>
</radialGradient>
<radialGradient id="paint5_radial_110_154" cx="0" cy="0" r="1" gradientUnits="userSpaceOnUse" gradientTransform="translate(92.4345 108.74) scale(75.9474 74.5833)">
<stop stop-color="#EBEFF0"/>
<stop offset="0.25" stop-color="#E7EBED"/>
<stop offset="0.49" stop-color="#DBE2E4"/>
<stop offset="0.72" stop-color="#C8D1D5"/>
<stop offset="0.94" stop-color="#AEBBC0"/>
<stop offset="1" stop-color="#A6B4BA"/>
</radialGradient>
</defs>
</svg>
